<?xml version="1.0" encoding="utf-8"?>
<!-- Generator: Adobe Illustrator 15.0.0, SVG Export Plug-In . SVG Version: 6.00 Build 0)  -->
<!DOCTYPE svg PUBLIC "-//W3C//DTD SVG 1.1//EN" "http://www.w3.org/Graphics/SVG/1.1/DTD/svg11.dtd">
<svg version="1.1" id="Layer_1" xmlns="http://www.w3.org/2000/svg" xmlns:xlink="http://www.w3.org/1999/xlink" x="0px" y="0px"
	 width="60px" height="23.057px" viewBox="0 0 60 23.057" enable-background="new 0 0 60 23.057" xml:space="preserve">
<path fill="#CE4F33" d="M7.837,6.004C5.084,3.857,3.046,4.752,3.046,4.752s1.002,3.326,3.704,4.74
	c2.703,1.415,4.902,0.543,4.902,0.543S10.591,8.152,7.837,6.004"/>
<path fill="#D7BB2A" d="M51.333,18.861c5.312-1.771,5.621-3.881,5.621-3.881s-5.646-1.172-9.851,0.791
	C42.9,17.734,42.43,21.98,42.43,21.98S45.139,20.927,51.333,18.861"/>
<path fill="#D7BB2A" d="M19.83,10.115c2.701-3.604,0.414-6.641,0.133-9.039c-0.252,2.566-4.446,5.272-4.975,8.657
	c-0.529,3.384,2.156,4.06,2.156,4.06S17.146,13.695,19.83,10.115"/>
<path fill="#CE4F33" d="M43.084,13.537c3.961-0.43,4.979-3.23,4.979-3.23s-3.396-2.384-6.753-1.269
	c-3.354,1.117-4.526,4.046-4.526,4.046S39.121,13.97,43.084,13.537"/>
</svg>
