<?xml version="1.0" encoding="utf-8"?>
<!-- Generator: Adobe Illustrator 15.0.0, SVG Export Plug-In . SVG Version: 6.00 Build 0)  -->
<!DOCTYPE svg PUBLIC "-//W3C//DTD SVG 1.1//EN" "http://www.w3.org/Graphics/SVG/1.1/DTD/svg11.dtd">
<svg version="1.1" id="Layer_1" xmlns="http://www.w3.org/2000/svg" xmlns:xlink="http://www.w3.org/1999/xlink" x="0px" y="0px"
	 width="34.25px" height="25.5px" viewBox="0 0 34.25 25.5" enable-background="new 0 0 34.25 25.5" xml:space="preserve">
<g>
	<path fill="#5CBA48" d="M8.903,8.899C4.153,7.203,3,9.035,3,9.035s4.146,3.778,8.147,4.581c4.003,0.805,5.338-1.055,5.338-1.055
		S13.653,10.597,8.903,8.899"/>
	<g>
		<g>
			<g>
				<defs>
					<rect id="SVGID_1_" x="12.631" y="2.03" width="17.634" height="21.439"/>
				</defs>
				<clipPath id="SVGID_2_">
					<use xlink:href="#SVGID_1_"  overflow="visible"/>
				</clipPath>
				<path clip-path="url(#SVGID_2_)" fill="#D7BB2A" d="M17.166,18.823c-2.383-2.555-4.535-1.985-4.535-1.985
					s0.469,3.441,2.917,5.262c2.447,1.82,4.757,1.305,4.757,1.305S19.551,21.377,17.166,18.823"/>
			</g>
		</g>
		<g>
			<g>
				<defs>
					<rect id="SVGID_3_" x="12.631" y="2.03" width="17.634" height="21.439"/>
				</defs>
				<clipPath id="SVGID_4_">
					<use xlink:href="#SVGID_3_"  overflow="visible"/>
				</clipPath>
				<path clip-path="url(#SVGID_4_)" fill="#D7BB2A" d="M27.269,7.54c3.501-3.283,2.969-5.51,2.969-5.51s-4.473,1.404-7.034,4.568
					c-2.564,3.166-2.108,5.576-2.108,5.576S23.769,10.824,27.269,7.54"/>
			</g>
		</g>
	</g>
</g>
<g>
	<g>
		<path fill="#5CBA48" d="M23.249,14.211c-3.415,0.729-4.038,2.864-4.038,2.864s3.191,1.371,6.012,0.21
			c2.822-1.161,3.567-3.406,3.567-3.406S26.665,13.482,23.249,14.211"/>
	</g>
</g>
</svg>
