<?xml version="1.0" encoding="utf-8"?>
<!-- Generator: Adobe Illustrator 15.0.0, SVG Export Plug-In . SVG Version: 6.00 Build 0)  -->
<!DOCTYPE svg PUBLIC "-//W3C//DTD SVG 1.1//EN" "http://www.w3.org/Graphics/SVG/1.1/DTD/svg11.dtd">
<svg version="1.1" id="Layer_1" xmlns="http://www.w3.org/2000/svg" xmlns:xlink="http://www.w3.org/1999/xlink" x="0px" y="0px"
	 width="34.25px" height="25.5px" viewBox="304.25 383.25 34.25 25.5" enable-background="new 304.25 383.25 34.25 25.5"
	 xml:space="preserve">
<g>
	<path fill="#5CBA48" d="M311.772,392.149c-4.75-1.697-5.903,0.135-5.903,0.135s4.146,3.779,8.148,4.581
		c4.002,0.805,5.337-1.055,5.337-1.055S316.522,393.845,311.772,392.149"/>
	<g>
		<g>
			<defs>
				<rect id="SVGID_1_" x="315.5" y="385.28" width="17.634" height="21.439"/>
			</defs>
			<clipPath id="SVGID_2_">
				<use xlink:href="#SVGID_1_"  overflow="visible"/>
			</clipPath>
			<path clip-path="url(#SVGID_2_)" fill="#D7BB2A" d="M320.035,402.072c-2.383-2.554-4.535-1.985-4.535-1.985
				s0.469,3.441,2.917,5.262c2.447,1.82,4.757,1.304,4.757,1.304S322.42,404.626,320.035,402.072"/>
		</g>
		<g>
			<defs>
				<rect id="SVGID_3_" x="315.5" y="385.28" width="17.634" height="21.439"/>
			</defs>
			<clipPath id="SVGID_4_">
				<use xlink:href="#SVGID_3_"  overflow="visible"/>
			</clipPath>
			<path clip-path="url(#SVGID_4_)" fill="#D7BB2A" d="M330.138,390.789c3.501-3.283,2.968-5.509,2.968-5.509
				s-4.472,1.403-7.034,4.568c-2.564,3.166-2.108,5.576-2.108,5.576S326.638,394.073,330.138,390.789"/>
		</g>
	</g>
</g>
<g>
	<g>
		<path fill="#5CBA48" d="M326.118,397.46c-3.415,0.729-4.038,2.864-4.038,2.864s3.191,1.371,6.012,0.21
			c2.822-1.161,3.567-3.406,3.567-3.406S329.534,396.731,326.118,397.46"/>
	</g>
</g>
</svg>
