<?xml version="1.0" encoding="utf-8"?>
<!-- Generator: Adobe Illustrator 15.0.0, SVG Export Plug-In . SVG Version: 6.00 Build 0)  -->
<!DOCTYPE svg PUBLIC "-//W3C//DTD SVG 1.1//EN" "http://www.w3.org/Graphics/SVG/1.1/DTD/svg11.dtd">
<svg version="1.1" id="Layer_1" xmlns="http://www.w3.org/2000/svg" xmlns:xlink="http://www.w3.org/1999/xlink" x="0px" y="0px"
	 width="29.043px" height="19.248px" viewBox="1.207 0 29.043 19.248" enable-background="new 1.207 0 29.043 19.248"
	 xml:space="preserve">
<g>
	<path fill="#CD4F34" d="M26.437,6.459c-2.753-2.147-4.791-1.252-4.791-1.252s1.001,3.326,3.704,4.74
		c2.703,1.415,4.9,0.545,4.9,0.545S29.19,8.609,26.437,6.459"/>
	<path fill="#CD4F34" d="M23.561,17.166c3.861-0.992,4.472-3.91,4.472-3.91s-3.704-1.876-6.866-0.292
		c-3.161,1.582-3.907,4.649-3.907,4.649S19.701,18.158,23.561,17.166"/>
	<path fill="#D7BB28" d="M16.447,6.752C16.002,2.27,12.264,1.577,10.436,0c1.548,2.061,0.285,6.89,2.183,9.742
		c1.898,2.854,4.334,1.535,4.334,1.535S16.887,11.203,16.447,6.752"/>
	<g>
		<defs>
			
				<rect id="SVGID_1_" x="4.627" y="4.931" transform="matrix(-0.7363 0.6766 -0.6766 -0.7363 22.9786 14.2081)" width="8.187" height="13.3"/>
		</defs>
		<clipPath id="SVGID_2_">
			<use xlink:href="#SVGID_1_"  overflow="visible"/>
		</clipPath>
		<path clip-path="url(#SVGID_2_)" fill="#5BBA47" d="M7.035,12.784c3.956,2.757,6.251,0.799,9.199,0.925
			c-3.071-0.589-5.713-4.439-9.735-5.377C2.476,7.393,1.25,9.5,1.25,9.5S3.106,10.044,7.035,12.784"/>
	</g>
</g>
</svg>
