<?xml version="1.0" encoding="utf-8"?>
<!-- Generator: Adobe Illustrator 15.0.0, SVG Export Plug-In . SVG Version: 6.00 Build 0)  -->
<!DOCTYPE svg PUBLIC "-//W3C//DTD SVG 1.1//EN" "http://www.w3.org/Graphics/SVG/1.1/DTD/svg11.dtd">
<svg version="1.1" id="Layer_1" xmlns="http://www.w3.org/2000/svg" xmlns:xlink="http://www.w3.org/1999/xlink" x="0px" y="0px"
	 width="45.25px" height="19.25px" viewBox="0 0 45.25 19.25" enable-background="new 0 0 45.25 19.25" xml:space="preserve">
<g>
	<path fill="#CD4F34" d="M8.657,14.423c3.962-0.431,4.98-3.232,4.98-3.232S10.24,8.808,6.886,9.923
		c-3.355,1.117-4.529,4.046-4.529,4.046S4.694,14.855,8.657,14.423"/>
	<path fill="#00854F" d="M20.235,3.548c-3.079-3.287-5.076-0.936-7.486-1.072c2.483,0.693,4.422,5.293,7.662,6.401
		c3.242,1.108,4.371-1.42,4.371-1.42S23.294,6.812,20.235,3.548"/>
	<path fill="#CD4F34" d="M19.413,12.742c-3.493,0.002-4.547,1.963-4.547,1.963s2.838,2.004,5.838,1.455
		c3.001-0.549,4.197-2.589,4.197-2.589S22.905,12.739,19.413,12.742"/>
	<path fill="#D7BB28" d="M41.945,13.785c2.701-3.604,0.414-6.642,0.133-9.039c-0.252,2.565-4.445,5.271-4.976,8.657
		c-0.528,3.385,2.158,4.059,2.158,4.059S39.261,17.364,41.945,13.785"/>
</g>
</svg>
