<?xml version="1.0" encoding="utf-8"?>
<!-- Generator: Adobe Illustrator 15.0.0, SVG Export Plug-In . SVG Version: 6.00 Build 0)  -->
<!DOCTYPE svg PUBLIC "-//W3C//DTD SVG 1.1//EN" "http://www.w3.org/Graphics/SVG/1.1/DTD/svg11.dtd">
<svg version="1.1" id="Layer_1" xmlns="http://www.w3.org/2000/svg" xmlns:xlink="http://www.w3.org/1999/xlink" x="0px" y="0px"
	 width="54.333px" height="29.333px" viewBox="0 0 54.333 29.333" enable-background="new 0 0 54.333 29.333" xml:space="preserve">
<path fill="#5CBA48" d="M4.828,20.769c1.049,4.707,4.062,4.818,6.148,6.906c-1.863-2.512-1.203-7.135-3.531-10.547
	c-2.327-3.412-4.656-2.69-4.656-2.69S3.788,16.095,4.828,20.769"/>
<path fill="#028650" d="M23.925,14.474c-3.855-2.327-5.139,0.48-7.496,1c2.578-0.006,5.691,3.896,9.111,4.082
	c3.422,0.188,3.82-2.553,3.82-2.553S27.755,16.787,23.925,14.474"/>
<path fill="#D7BB2A" d="M13.664,10.697c2.701-3.604,0.414-6.641,0.133-9.039c-0.252,2.566-4.447,5.271-4.976,8.657
	c-0.528,3.385,2.157,4.06,2.157,4.06S10.979,14.277,13.664,10.697"/>
<path fill="#CE4F33" d="M36.917,14.12c3.961-0.431,4.979-3.231,4.979-3.231S38.5,8.503,35.142,9.62
	c-3.354,1.117-4.525,4.046-4.525,4.046S32.955,14.552,36.917,14.12"/>
<path fill="#D7BB2A" d="M48.404,18.939c-2.383-2.553-4.533-1.984-4.533-1.984s0.469,3.439,2.916,5.262
	c2.445,1.82,4.758,1.303,4.758,1.303S50.787,21.492,48.404,18.939"/>
</svg>
