<?xml version="1.0" encoding="utf-8"?>
<!-- Generator: Adobe Illustrator 15.0.0, SVG Export Plug-In . SVG Version: 6.00 Build 0)  -->
<!DOCTYPE svg PUBLIC "-//W3C//DTD SVG 1.1//EN" "http://www.w3.org/Graphics/SVG/1.1/DTD/svg11.dtd">
<svg version="1.1" id="Layer_1" xmlns="http://www.w3.org/2000/svg" xmlns:xlink="http://www.w3.org/1999/xlink" x="0px" y="0px"
	 width="45.25px" height="19.25px" viewBox="0 0 45.25 19.25" enable-background="new 0 0 45.25 19.25" xml:space="preserve">
<g>
	<path fill="#5BBA47" d="M4.125,9.37c1.048,4.707,4.062,4.818,6.149,6.905C8.411,13.764,9.07,9.142,6.743,5.729
		C4.416,2.316,2.086,3.038,2.086,3.038S3.085,4.695,4.125,9.37"/>
	<path fill="#5BBA47" d="M19.548,17.986c3.404,0.783,4.872-0.889,4.872-0.889s-2.313-2.592-5.362-2.732
		c-3.047-0.141-4.672,1.578-4.672,1.578S16.146,17.203,19.548,17.986"/>
	<path fill="#D7BB28" d="M17.297,10.038C19.998,6.435,17.711,3.397,17.43,1c-0.252,2.565-4.445,5.271-4.975,8.656
		c-0.529,3.386,2.156,4.06,2.156,4.06S14.613,13.617,17.297,10.038"/>
	<path fill="#D7BB28" d="M36.171,13.453c5.314-1.772,5.621-3.882,5.621-3.882s-5.644-1.172-9.848,0.792
		c-4.203,1.963-4.675,6.208-4.675,6.208S29.977,15.52,36.171,13.453"/>
</g>
</svg>
