<?xml version="1.0" encoding="utf-8"?>
<!-- Generator: Adobe Illustrator 15.0.0, SVG Export Plug-In . SVG Version: 6.00 Build 0)  -->
<!DOCTYPE svg PUBLIC "-//W3C//DTD SVG 1.1//EN" "http://www.w3.org/Graphics/SVG/1.1/DTD/svg11.dtd">
<svg version="1.1" id="Layer_1" xmlns="http://www.w3.org/2000/svg" xmlns:xlink="http://www.w3.org/1999/xlink" x="0px" y="0px"
	 width="31.25px" height="29.25px" viewBox="0 0 31.25 29.25" enable-background="new 0 0 31.25 29.25" xml:space="preserve">
<g>
	<path fill="#CD4F34" d="M23.977,10.252c3.66-3.14,1.711-4.752,3.646-7.091c-2.552,2.012-5.32,1.642-8.011,4.777
		c-2.69,3.136-1.567,5.144-1.567,5.144S20.316,13.391,23.977,10.252"/>
	<path fill="#CD4F34" d="M8.532,21.19c-2.753-2.148-4.791-1.252-4.791-1.252s1.001,3.326,3.704,4.74
		c2.703,1.415,4.901,0.544,4.901,0.544S11.286,23.339,8.532,21.19"/>
	<path fill="#CD4F34" d="M22.402,23.159c3.929,0.677,5.681-1.735,5.681-1.735s-2.611-3.229-6.143-3.079
		c-3.533,0.148-5.469,2.64-5.469,2.64S18.474,22.482,22.402,23.159"/>
	<path fill="#D7BB28" d="M12.573,11.487C12.128,7.005,8.39,6.312,6.562,4.735c1.548,2.061,0.285,6.89,2.183,9.742
		c1.898,2.854,4.334,1.535,4.334,1.535S13.012,15.938,12.573,11.487"/>
</g>
</svg>
